<?xml version="1.0" standalone="no"?>
<!DOCTYPE svg PUBLIC "-//W3C//DTD SVG 20010904//EN"
 "http://www.w3.org/TR/2001/REC-SVG-20010904/DTD/svg10.dtd">
<svg version="1.0" xmlns="http://www.w3.org/2000/svg"
 width="293.000000pt" height="276.000000pt" viewBox="0 0 293.000000 276.000000"
 preserveAspectRatio="xMidYMid meet">

<g transform="translate(0.000000,276.000000) scale(0.100000,-0.100000)"
fill="#000000" stroke="none">
<path d="M2325 2396 c-65 -30 -111 -83 -131 -152 -36 -125 21 -246 146 -309
52 -27 153 -25 212 4 190 91 185 374 -7 462 -59 27 -157 25 -220 -5z"/>
<path d="M210 1165 l0 -945 261 0 262 0 -7 243 -7 242 102 108 c56 59 105 107
109 107 4 0 43 -46 86 -102 44 -57 159 -206 258 -333 98 -126 183 -237 190
-247 10 -17 34 -18 318 -18 170 0 308 2 308 5 0 2 -98 129 -217 282 -463 593
-585 754 -580 766 3 7 78 93 167 192 145 161 450 505 538 607 l34 38 -298 -2
-298 -3 -218 -245 c-417 -468 -473 -529 -487 -529 -11 -1 -12 63 -6 389 l8
390 -262 0 -261 0 0 -945z"/>
<path d="M2190 1000 l0 -780 258 2 257 3 -1 33 c0 17 -1 367 -2 777 l-2 745
-255 0 -255 0 0 -780z"/>
</g>
</svg>
